<svg xmlns="http://www.w3.org/2000/svg" viewBox="0 0 60 60">
  <path fill="none" d="M-1-1h582v402H-1z"/>
  <path d="M-1-1h582v402H-1V-1z" fill="none"/>
  <g stroke="null">
    <path fill="none" d="M-1-1h62v62H-1V-1z"/>
    <g fill="#282c34">
      <path d="M12.2 45.06C3.43 35.74 0 31.86-.28 31.03c-.75-2.27-.6-2.49 12.25-16.15C22.91 3.25 24.04 2.16 24.95 2.16h1l.1 6.03.06 6-1.16.4c-7.44 2.39-12.26 9.87-11.12 17.31a16.2 16.2 0 0 0 8.57 11.88c1.39.7 2.8 1.26 3.11 1.26.57 0 .6.35.6 6.05 0 6.27-.1 6.82-1.3 6.82-.27 0-5.96-5.77-12.61-12.85zM33.74 57.7c-.3-.1-.4-1.7-.4-6.37v-6.2l1.44-.41c4.56-1.3 9.02-6.1 10.34-11.16 1.97-7.6-2.55-16.08-9.99-18.7l-1.64-.55V2.15l.82-.1c.7-.09 2.35 1.54 12.57 12.35 6.47 6.88 12 12.92 12.31 13.44.63 1.14.7 2.9.13 3.9-.29.54-17.19 18.63-23.31 25.01-1.1 1.14-1.48 1.3-2.27.95z"/>
      <path d="M26.7 38.56c-1.88-.57-4.4-2.83-5.33-4.77-.98-1.99-1-5.56-.07-7.6a10.5 10.5 0 0 1 4.27-4.5c1.9-.97 6.41-1 8.24 0 5.71 3.08 6.72 10.74 1.98 15.02a9.2 9.2 0 0 1-9.08 1.85z"/>
    </g>
  </g>
</svg>