<?xml version="1.0" encoding="utf-8"?>
<svg width="30" height="30" xmlns="http://www.w3.org/2000/svg" xmlns:xlink="http://www.w3.org/1999/xlink">
  <defs>
    <path d="M.06 4.41a4.41 4.41 0 1 0 8.82-.01 4.41 4.41 0 0 0-8.82.01z" id="a"/>
    <path d="M6.36-8.66a.5.5 0 0 0-.16.37v5.24a7.63 7.63 0 0 1 0 14.85v5.35a.51.51 0 0 0 .88.35l11.1-11.77a1.9 1.9 0 0 0 0-2.6L7.08-8.64a.51.51 0 0 0-.72-.02z" id="b"/>
    <path d="M1.87-8.64L-9.23 3.13a1.9 1.9 0 0 0 0 2.6L1.87 17.5a.51.51 0 0 0 .88-.35V11.8a7.63 7.63 0 0 1 0-14.85v-5.24a.5.5 0 0 0-.5-.51.51.51 0 0 0-.38.16z" id="c"/>
  </defs>
  <g transform="translate(10.5 10.5)" fill-rule="evenodd">
    <use xlink:href="#a"/>
    <use xlink:href="#b"/>
    <use xlink:href="#c"/>
  </g>
</svg>