<?xml version="1.0" encoding="utf-8"?>
<svg width="30" height="30" xmlns="http://www.w3.org/2000/svg">
  <path fill="none" d="M-1-1h32v32H-1z"/>
  <path d="M-1-1h582v402H-1V-1z" fill="none"/>
  <path fill="none" d="M-1-1h582v402H-1V-1z"/>
  <g stroke="null">
    <path d="M-.44-.44h30.88v30.88H-.44V-.44z" fill="none"/>
    <g fill="#282c34">
      <path d="M6.14 22.5C1.77 17.86.06 15.93-.08 15.51c-.37-1.13-.3-1.24 6.1-8.04 5.45-5.8 6.01-6.33 6.47-6.33h.5l.04 3 .03 2.99-.57.2c-3.71 1.19-6.11 4.91-5.54 8.62a8.07 8.07 0 0 0 4.27 5.91c.69.35 1.39.63 1.54.63.29 0 .3.17.3 3.01 0 3.12-.05 3.4-.64 3.4-.14 0-2.97-2.87-6.28-6.4zm10.72 6.3c-.15-.06-.2-.85-.2-3.18v-3.09l.72-.2c2.27-.65 4.5-3.04 5.15-5.56a8 8 0 0 0-4.98-9.3l-.81-.28V1.13l.4-.05c.35-.04 1.18.77 6.27 6.15 3.22 3.43 5.97 6.44 6.13 6.7.31.56.34 1.44.06 1.94-.14.27-8.56 9.27-11.6 12.45-.55.57-.74.65-1.14.47z"/>
      <path d="M13.36 19.26a5.29 5.29 0 0 1-2.66-2.37 5.2 5.2 0 0 1-.03-3.79 5.23 5.23 0 0 1 2.12-2.24 5.9 5.9 0 0 1 4.1 0 4.6 4.6 0 0 1 1 7.48 4.58 4.58 0 0 1-4.53.92z"/>
    </g>
  </g>
</svg>