<svg width="13px" height="13px" viewBox="0 0 24 24" fill="none" xmlns="http://www.w3.org/2000/svg">
<path fill-rule="evenodd" clip-rule="evenodd" d="M2 0C1.46957 0 0.96086 0.21071 0.58579 0.58579C0.21071 0.96086 0 1.46957 0 2V17C0 17.5304 0.21071 18.0391 0.58579 18.4142C0.96086 18.7893 1.46957 19 2 19H6V23C6 23.2652 6.10536 23.5196 6.29289 23.7071C6.48043 23.8946 6.73478 24 7 24C7.1667 23.9997 7.3307 23.9578 7.477 23.8779C7.6234 23.7981 7.7475 23.683 7.838 23.543L11.25 19H22C22.5304 19 23.0391 18.7893 23.4142 18.4142C23.7893 18.0391 24 17.5304 24 17V2C24 1.46957 23.7893 0.96086 23.4142 0.58579C23.0391 0.21071 22.5304 0 22 0H2ZM12 3C12.5523 3 13 3.44772 13 4V8H18C18.5523 8 19 8.4477 19 9C19 9.5523 18.5523 10 18 10H13V14C13 14.5523 12.5523 15 12 15C11.4477 15 11 14.5523 11 14V10H6C5.44772 10 5 9.5523 5 9C5 8.4477 5.44772 8 6 8H11V4C11 3.44772 11.4477 3 12 3Z" fill="#3578BA"/>
</svg>
