<?xml version="1.0" encoding="UTF-8"?>
<svg xmlns="http://www.w3.org/2000/svg" viewBox="0 0 13 13">
    <path fill="#000" d="M4.53 6.4a1.97 1.97 0 1 0 3.94.2 1.97 1.97 0 0 0-3.94-.2z"/>
    <path fill="#000" d="M7.34.65a.24.24 0 0 0-.07.17v2.34a3.41 3.41 0 0 1 0 6.63v2.39a.23.23 0 0 0 .4.15l4.95-5.25c.3-.33.3-.84 0-1.17L7.66.67a.23.23 0 0 0-.32-.01zm-2 .02L.38 5.92c-.3.32-.3.83 0 1.16l4.96 5.25a.23.23 0 0 0 .39-.16V9.8a3.41 3.41 0 0 1 0-6.63V.82c0-.13-.1-.23-.23-.23a.23.23 0 0 0-.16.07z"/>
</svg>
